# xmcd CD database file
#
# Track frame offsets:
#	150
#	17727
#	34721
#	50530
#	68859
#	84145
#	103614
#	119850
#	133012
#	148321
#	166360
#	182888
#	197315
#	214957
#
# Disc length: 3080 seconds
#
# Revision: 0
# Processed by: cddbd v1.5.2PL0 Copyright (c) Steve Scherf et al.
# Submitted via: CDex 1.70beta2
#
DISCID=cd0c060e
DTITLE=Michael Schiefel - Don't Touch My Animals
DYEAR=2006
DGENRE=Jazz
TTITLE0=My Animals
TTITLE1=Auf'm Dorf Und Inner Stadt
TTITLE2=Walking
TTITLE3=Deutsch
TTITLE4=Do The Rumba
TTITLE5=Mann Und Mann
TTITLE6=Just A Little Me
TTITLE7=Waiting For You
TTITLE8=Being Lonely
TTITLE9=Be My Toy, Be My Joy
TTITLE10=Matthew
TTITLE11=Im Winter
TTITLE12=Apple Pie Queen
TTITLE13=Watersong
EXTD=YEAR: 2006
EXTT0=
EXTT1=
EXTT2=
EXTT3=
EXTT4=
EXTT5=
EXTT6=
EXTT7=
EXTT8=
EXTT9=
EXTT10=
EXTT11=
EXTT12=
EXTT13=
PLAYORDER=
